<svg width="390" height="534" viewBox="0 0 390 534" fill="none" xmlns="http://www.w3.org/2000/svg">
<g clip-path="url(#clip0_33_130)">
<path d="M345.212 532.98H175.415C150.718 532.98 130.627 512.89 130.627 488.192V44.788C130.627 20.0904 150.718 0 175.415 0H345.212C369.91 0 390 20.0904 390 44.788V488.192C390 512.89 369.91 532.98 345.212 532.98Z" fill="#DADBDC"/>
<path d="M345.335 520.856H175.292C157.013 520.856 142.136 505.979 142.136 487.7V44.4097C142.136 26.1305 157.013 11.2539 175.292 11.2539H345.335C363.614 11.2539 378.491 26.1305 378.491 44.4097V487.7C378.491 505.979 363.614 520.856 345.335 520.856Z" fill="white"/>
<path d="M284.361 40.7609H236.275C229.927 40.7609 224.766 35.5998 224.766 29.2518C224.766 22.9038 229.927 17.7427 236.275 17.7427H284.361C290.709 17.7427 295.87 22.9038 295.87 29.2518C295.87 35.5998 290.709 40.7609 284.361 40.7609Z" fill="#DADBDC"/>
<path d="M333.43 176.127H192.727C189.94 176.127 187.672 173.243 187.672 169.709C187.672 166.174 189.94 163.291 192.727 163.291H333.43C336.218 163.291 338.486 166.174 338.486 169.709C338.486 173.243 336.218 176.127 333.43 176.127Z" fill="#DADBDC"/>
<path d="M333.43 204.571H192.727C189.94 204.571 187.672 201.687 187.672 198.152C187.672 194.618 189.94 191.734 192.727 191.734H333.43C336.218 191.734 338.486 194.618 338.486 198.152C338.486 201.687 336.218 204.571 333.43 204.571Z" fill="#DADBDC"/>
<path d="M293.082 233.014H192.727C189.94 233.014 187.672 230.13 187.672 226.595C187.672 223.061 189.94 220.177 192.727 220.177H293.082C295.87 220.177 298.138 223.061 298.138 226.595C298.138 230.13 295.87 233.014 293.082 233.014Z" fill="#DADBDC"/>
<path d="M260.314 400.243C293.484 400.243 320.374 373.353 320.374 340.183C320.374 307.012 293.484 280.123 260.314 280.123C227.143 280.123 200.253 307.012 200.253 340.183C200.253 373.353 227.143 400.243 260.314 400.243Z" fill="#6C63FF"/>
<path d="M244.338 341.432C247.442 347.507 250.545 353.591 253.649 359.667C254.537 361.416 257.148 360.863 257.667 359.139C261.738 345.564 269.299 333.193 279.49 323.355C281.529 321.385 278.417 318.281 276.377 320.242C265.65 330.599 257.711 343.691 253.42 357.97L257.438 357.442C254.335 351.367 251.231 345.283 248.127 339.207C246.844 336.684 243.046 338.908 244.329 341.423H244.338V341.432Z" fill="white"/>
<path d="M98.4034 267.532L83.8433 272.499L83.6147 251.477L96.8647 251.328L98.4034 267.532Z" fill="#F3A3A6"/>
<path d="M85.3205 257.28C93.3618 257.28 99.8805 250.761 99.8805 242.72C99.8805 234.679 93.3618 228.16 85.3205 228.16C77.2792 228.16 70.7604 234.679 70.7604 242.72C70.7604 250.761 77.2792 257.28 85.3205 257.28Z" fill="#F3A3A6"/>
<path d="M89.3034 241.234C86.8679 241.19 85.2413 238.746 84.2654 236.504C83.2894 234.271 82.2871 231.695 80.0275 230.789C78.1723 230.051 74.9719 235.212 73.4948 233.866C71.9562 232.46 73.3629 225.127 74.9631 223.799C76.5633 222.472 78.7702 222.19 80.8452 222.067C85.9183 221.777 91.0179 222.129 96.0031 223.113C99.0804 223.72 102.263 224.652 104.505 226.85C107.345 229.637 108.11 233.884 108.356 237.858C108.611 241.92 108.418 246.184 106.484 249.772C104.54 253.35 100.434 256.023 96.4515 255.161C96.0295 253.007 96.4076 250.792 96.5394 248.594C96.6713 246.404 96.4779 244.039 95.1239 242.307C93.7699 240.575 90.9036 239.916 89.3649 241.481" fill="#2F2E43"/>
<path d="M107.266 246.079C108.708 244.997 110.44 244.083 112.234 244.285C114.177 244.496 115.83 246.079 116.349 247.96C116.867 249.842 116.331 251.926 115.153 253.482C113.975 255.038 112.207 256.076 110.326 256.603C109.236 256.911 108.049 257.043 107.002 256.603C105.464 255.961 104.62 254.018 105.2 252.453" fill="#2F2E43"/>
<path d="M53.0879 383.634C52.1735 388.426 53.9935 392.778 57.1675 393.35C60.3328 393.921 63.6475 390.492 64.5619 385.701C64.9575 383.793 64.8696 381.814 64.3069 379.942L75.5083 304.847L60.4207 302.183L55.453 378.35C54.2397 379.907 53.422 381.718 53.0879 383.643V383.634Z" fill="#F3A3A6"/>
<path d="M83.5796 262.854L73.3014 262.969C66.0477 264.147 64.1134 268.051 62.5484 275.225C60.1481 286.172 57.0884 300.758 57.7302 300.96C58.7589 301.294 76.3435 309.331 85.2413 307.344L83.5796 262.854Z" fill="#6C63FF"/>
<path d="M96.2014 501.522L82.5215 501.675L82.7382 521.079L96.4182 520.926L96.2014 501.522Z" fill="#F3A3A6"/>
<path d="M69.5119 532.98C68.07 532.998 66.7951 532.98 65.8279 532.901C62.1879 532.611 58.6974 529.965 56.9301 528.417C56.1388 527.723 55.8751 526.597 56.2707 525.63C56.5521 524.935 57.1324 524.408 57.8533 524.188L67.4281 521.339L82.8586 510.674L83.0345 510.982C83.1048 511.096 84.661 513.831 85.1886 515.686C85.3908 516.389 85.3468 516.978 85.0567 517.436C84.8545 517.752 84.5731 517.937 84.3445 518.051C84.6259 518.341 85.5139 518.93 88.2395 519.335C92.2048 519.924 93.0049 515.8 93.0313 515.624L93.0577 515.484L93.172 515.405C95.0447 514.165 96.1965 513.602 96.601 513.716C96.856 513.787 97.2692 513.91 98.5177 525.094C98.632 525.445 99.4497 528.013 98.9397 530.483C98.3858 533.174 86.6657 532.374 84.3269 532.189C84.2566 532.198 75.4995 532.919 69.4943 532.98H69.5119Z" fill="#2F2E43"/>
<path d="M134.984 485.811L123.457 493.18L133.909 509.529L145.436 502.161L134.984 485.811Z" fill="#F3A3A6"/>
<path d="M120.024 529.754C118.415 529.771 116.938 529.595 115.882 529.42C114.845 529.244 114.027 528.435 113.851 527.397C113.72 526.65 113.939 525.903 114.432 525.34L121.044 517.858L128.491 500.642L128.807 500.809C128.921 500.871 131.691 502.366 133.124 503.658C133.669 504.151 133.942 504.669 133.942 505.214C133.942 505.592 133.801 505.9 133.661 506.111C134.056 506.208 135.12 506.234 137.643 505.135C141.319 503.535 139.815 499.614 139.745 499.455L139.692 499.324L139.754 499.201C140.686 497.161 141.371 496.07 141.767 495.947C142.022 495.877 142.435 495.754 149.416 504.581C149.698 504.819 151.755 506.56 152.626 508.925C153.575 511.501 143.218 517.023 141.125 518.104C141.064 518.157 130.24 526.202 125.791 528.505C124.024 529.42 121.923 529.719 120.006 529.736L120.024 529.754Z" fill="#2F2E43"/>
<path d="M104.444 339.102L66.1444 339.524L63.0671 375.185L79.7373 506.665L99.2914 506.445L90.631 430.498L123.11 498.796L140.351 486.434L114.871 422.62C114.871 422.62 123.101 366.692 115.997 352.862C108.893 339.031 104.452 339.084 104.452 339.084V339.102H104.444Z" fill="#2F2E43"/>
<path d="M123.514 341.062L62.6891 341.739L80.0627 262.899L106.571 262.6L123.514 341.062Z" fill="#6C63FF"/>
<path d="M129.458 382.79C130.478 387.564 128.754 391.952 125.598 392.594C122.442 393.235 119.057 389.886 118.037 385.111C117.597 383.212 117.641 381.234 118.16 379.344L105.288 304.512L120.314 301.514L126.97 377.559C128.218 379.089 129.071 380.882 129.458 382.799V382.79Z" fill="#F3A3A6"/>
<path d="M96.2933 262.714L106.571 262.6C113.851 263.62 115.865 267.479 117.597 274.619C120.235 285.512 123.62 300.02 122.987 300.239C121.958 300.591 104.567 309.014 95.6251 307.229L96.3021 262.714H96.2933Z" fill="#6C63FF"/>
<path d="M189.105 532.98C189.105 533.455 188.718 533.842 188.243 533.842H0.861645C0.386861 533.842 0 533.455 0 532.98C0 532.505 0.386861 532.119 0.861645 532.119H188.243C188.718 532.119 189.105 532.505 189.105 532.98Z" fill="#3F3D58"/>
</g>
<defs>
<clipPath id="clip0_33_130">
<rect width="390" height="533.842" fill="white"/>
</clipPath>
</defs>
</svg>
